<svg width="35" height="35" viewBox="0 0 35 35" fill="none" xmlns="http://www.w3.org/2000/svg">
<path d="M8.53121 24.9375C9.77079 23.9896 11.1562 23.2419 12.6875 22.6946C14.2187 22.1472 15.8229 21.874 17.5 21.875C19.177 21.875 20.7812 22.1487 22.3125 22.696C23.8437 23.2434 25.2291 23.9906 26.4687 24.9375C27.3194 23.941 27.982 22.8108 28.4564 21.5469C28.9309 20.283 29.1676 18.934 29.1666 17.5C29.1666 14.2674 28.0306 11.5145 25.7585 9.24146C23.4864 6.96841 20.7336 5.83237 17.5 5.83334C14.2673 5.83334 11.5145 6.96938 9.24142 9.24146C6.96836 11.5135 5.83232 14.2664 5.83329 17.5C5.83329 18.934 6.07051 20.283 6.54496 21.5469C7.0194 22.8108 7.68149 23.941 8.53121 24.9375ZM17.5 18.9583C16.0659 18.9583 14.8565 18.4664 13.8716 17.4825C12.8868 16.4986 12.3948 15.2892 12.3958 13.8542C12.3958 12.4201 12.8877 11.2107 13.8716 10.2258C14.8555 9.24098 16.065 8.74903 17.5 8.75C18.934 8.75 20.1434 9.24195 21.1283 10.2258C22.1132 11.2097 22.6051 12.4192 22.6041 13.8542C22.6041 15.2882 22.1122 16.4976 21.1283 17.4825C20.1444 18.4674 18.935 18.9593 17.5 18.9583ZM17.5 32.0833C15.4826 32.0833 13.5868 31.7003 11.8125 30.9342C10.0382 30.1681 8.49475 29.1292 7.18225 27.8177C5.86975 26.5052 4.83093 24.9618 4.06579 23.1875C3.30065 21.4132 2.9176 19.5174 2.91663 17.5C2.91663 15.4826 3.29968 13.5868 4.06579 11.8125C4.8319 10.0382 5.87072 8.4948 7.18225 7.1823C8.49475 5.8698 10.0382 4.83098 11.8125 4.06584C13.5868 3.3007 15.4826 2.91764 17.5 2.91667C19.5173 2.91667 21.4132 3.29973 23.1875 4.06584C24.9618 4.83195 26.5052 5.87077 27.8177 7.1823C29.1302 8.4948 30.1695 10.0382 30.9356 11.8125C31.7017 13.5868 32.0843 15.4826 32.0833 17.5C32.0833 19.5174 31.7002 21.4132 30.9341 23.1875C30.168 24.9618 29.1292 26.5052 27.8177 27.8177C26.5052 29.1302 24.9618 30.1695 23.1875 30.9356C21.4132 31.7017 19.5173 32.0843 17.5 32.0833ZM17.5 29.1667C18.7882 29.1667 20.0034 28.9781 21.1458 28.6008C22.2882 28.2236 23.3333 27.6831 24.2812 26.9792C23.3333 26.2743 22.2882 25.7333 21.1458 25.356C20.0034 24.9788 18.7882 24.7907 17.5 24.7917C16.2118 24.7917 14.9965 24.9803 13.8541 25.3575C12.7118 25.7347 11.6666 26.2753 10.7187 26.9792C11.6666 27.684 12.7118 28.2251 13.8541 28.6023C14.9965 28.9795 16.2118 29.1676 17.5 29.1667ZM17.5 16.0417C18.1319 16.0417 18.6545 15.8351 19.0677 15.4219C19.4809 15.0087 19.6875 14.4861 19.6875 13.8542C19.6875 13.2222 19.4809 12.6997 19.0677 12.2865C18.6545 11.8733 18.1319 11.6667 17.5 11.6667C16.868 11.6667 16.3454 11.8733 15.9323 12.2865C15.5191 12.6997 15.3125 13.2222 15.3125 13.8542C15.3125 14.4861 15.5191 15.0087 15.9323 15.4219C16.3454 15.8351 16.868 16.0417 17.5 16.0417Z" fill="black"/>
</svg>
