<svg width="50" height="50" viewBox="0 0 50 50" fill="none" xmlns="http://www.w3.org/2000/svg">
<path d="M25 4.16666C22.2641 4.16666 19.555 4.70553 17.0274 5.7525C14.4998 6.79947 12.2031 8.33404 10.2686 10.2686C6.36156 14.1756 4.16663 19.4746 4.16663 25C4.16663 30.5253 6.36156 35.8244 10.2686 39.7314C12.2031 41.6659 14.4998 43.2005 17.0274 44.2475C19.555 45.2945 22.2641 45.8333 25 45.8333C30.5253 45.8333 35.8243 43.6384 39.7314 39.7314C43.6384 35.8244 45.8333 30.5253 45.8333 25C45.8333 22.2641 45.2944 19.555 44.2475 17.0274C43.2005 14.4998 41.6659 12.2032 39.7314 10.2686C37.7968 8.33404 35.5002 6.79947 32.9725 5.7525C30.4449 4.70553 27.7358 4.16666 25 4.16666ZM14.7291 38.0833C15.625 36.2083 21.0833 34.375 25 34.375C28.9166 34.375 34.375 36.2083 35.2708 38.0833C32.3528 40.4084 28.7309 41.672 25 41.6667C21.125 41.6667 17.5625 40.3333 14.7291 38.0833ZM38.25 35.0625C35.2708 31.4375 28.0416 30.2083 25 30.2083C21.9583 30.2083 14.7291 31.4375 11.75 35.0625C9.53368 32.1763 8.3326 28.639 8.33329 25C8.33329 15.8125 15.8125 8.33332 25 8.33332C34.1875 8.33332 41.6666 15.8125 41.6666 25C41.6666 28.7917 40.375 32.2917 38.25 35.0625ZM25 12.5C20.9583 12.5 17.7083 15.75 17.7083 19.7917C17.7083 23.8333 20.9583 27.0833 25 27.0833C29.0416 27.0833 32.2916 23.8333 32.2916 19.7917C32.2916 15.75 29.0416 12.5 25 12.5ZM25 22.9167C24.1712 22.9167 23.3763 22.5874 22.7903 22.0014C22.2042 21.4153 21.875 20.6205 21.875 19.7917C21.875 18.9629 22.2042 18.168 22.7903 17.5819C23.3763 16.9959 24.1712 16.6667 25 16.6667C25.8288 16.6667 26.6236 16.9959 27.2097 17.5819C27.7957 18.168 28.125 18.9629 28.125 19.7917C28.125 20.6205 27.7957 21.4153 27.2097 22.0014C26.6236 22.5874 25.8288 22.9167 25 22.9167Z" fill="white"/>
</svg>
