<svg width="35" height="35" viewBox="0 0 35 35" fill="none" xmlns="http://www.w3.org/2000/svg">
<path d="M29.1666 11.6667L17.5 18.9583L5.83329 11.6667V8.75L17.5 16.0417L29.1666 8.75M29.1666 5.83334H5.83329C4.21454 5.83334 2.91663 7.13125 2.91663 8.75V26.25C2.91663 27.0236 3.22392 27.7654 3.7709 28.3124C4.31788 28.8594 5.05974 29.1667 5.83329 29.1667H29.1666C29.9402 29.1667 30.682 28.8594 31.229 28.3124C31.776 27.7654 32.0833 27.0236 32.0833 26.25V8.75C32.0833 7.97645 31.776 7.23459 31.229 6.68761C30.682 6.14063 29.9402 5.83334 29.1666 5.83334Z" fill="black"/>
</svg>
