<?xml version="1.0" encoding="utf-8"?>
<!-- Generator: Adobe Illustrator 22.1.0, SVG Export Plug-In . SVG Version: 6.00 Build 0)  -->
<svg version="1.1" id="Layer_1" xmlns="http://www.w3.org/2000/svg" xmlns:xlink="http://www.w3.org/1999/xlink" x="0px" y="0px"
	 viewBox="0 0 94 104" style="enable-background:new 0 0 94 104;" xml:space="preserve">
<style type="text/css">
	.st0{fill:#FFFFFF;}
</style>
<g>
	<g>
		<path class="st0" d="M71.1,29.4c-1.8-0.7-3.7-1.2-5.8-1.8c0.6-2,1.1-4,1.4-5.9c1.3-7.7,0.2-13-3.2-14.9c-3.4-2-8.6-0.3-14.5,4.7
			c-1.5,1.2-3,2.6-4.4,4.2c-1.5-1.5-3-2.9-4.4-4.2c-6-5-11.1-6.6-14.5-4.7c-3.4,2-4.5,7.3-3.2,14.9c0.3,1.9,0.8,3.9,1.4,5.9
			c-2.1,0.5-4,1.1-5.8,1.8C10.6,32,6.6,35.7,6.6,39.6s4,7.6,11.3,10.3c1.8,0.7,3.7,1.2,5.8,1.8c-0.6,2-1.1,4-1.4,5.9
			c-1.3,7.7-0.2,13,3.2,14.9c0.9,0.5,2,0.8,3.2,0.8c3.1,0,7-1.9,11.4-5.5c1.5-1.2,3-2.6,4.4-4.2c1.5,1.5,3,2.9,4.4,4.2
			c4.3,3.6,8.2,5.5,11.4,5.5c1.2,0,2.2-0.3,3.2-0.8c3.4-2,4.5-7.3,3.2-14.9c-0.3-1.9-0.8-3.9-1.4-5.9c2.1-0.5,4-1.1,5.8-1.8
			c7.3-2.7,11.3-6.3,11.3-10.3S78.4,32,71.1,29.4z M49.7,12.3c4.1-3.4,7.8-5.2,10.6-5.2c1,0,1.8,0.2,2.6,0.6
			c2.9,1.7,3.9,6.7,2.7,13.7c-0.3,1.9-0.8,3.8-1.4,5.8c-3.6-0.8-7.5-1.4-11.6-1.7c-2.3-3.4-4.8-6.5-7.3-9.2
			C46.8,14.9,48.2,13.5,49.7,12.3z M55.9,46.2c-1.3,2.2-2.6,4.3-4,6.3c-2.4,0.2-4.9,0.3-7.4,0.3c-2.5,0-5-0.1-7.4-0.3
			c-1.4-2-2.7-4.1-4-6.3c-1.3-2.2-2.4-4.4-3.5-6.6c1.1-2.2,2.2-4.4,3.5-6.6c1.3-2.2,2.6-4.3,4-6.3c2.4-0.2,4.9-0.3,7.4-0.3
			c2.5,0,5,0.1,7.4,0.3c1.4,2,2.7,4.1,4,6.3c1.3,2.2,2.4,4.4,3.5,6.6C58.3,41.8,57.2,44,55.9,46.2z M60,41c1.6,3.4,2.8,6.7,3.8,9.8
			c-3.2,0.7-6.7,1.3-10.4,1.6c1.2-1.8,2.4-3.7,3.5-5.6C58,44.8,59,42.9,60,41z M51.1,53.7c-2.1,3-4.3,5.8-6.6,8.2
			c-2.2-2.4-4.5-5.2-6.6-8.2c2.2,0.1,4.4,0.2,6.6,0.2C46.7,53.9,48.9,53.9,51.1,53.7z M35.6,52.4c-3.7-0.3-7.2-0.9-10.4-1.6
			c1-3.2,2.3-6.5,3.8-9.8c1,1.9,2,3.9,3.1,5.8C33.2,48.7,34.4,50.6,35.6,52.4z M29,38.3c-1.6-3.4-2.8-6.7-3.8-9.8
			c3.2-0.7,6.7-1.3,10.4-1.6c-1.2,1.8-2.4,3.7-3.5,5.6C31,34.4,30,36.3,29,38.3z M37.9,25.5c2.1-3,4.3-5.8,6.6-8.2
			c2.2,2.4,4.5,5.2,6.6,8.2c-2.2-0.1-4.4-0.2-6.6-0.2C42.3,25.3,40.1,25.4,37.9,25.5z M56.9,32.5c-1.1-1.9-2.3-3.8-3.5-5.6
			c3.7,0.3,7.2,0.9,10.4,1.6c-1,3.2-2.3,6.5-3.8,9.8C59,36.3,58,34.4,56.9,32.5z M23.5,21.5c-1.2-7-0.3-12,2.7-13.7
			c0.7-0.4,1.6-0.6,2.6-0.6c2.8,0,6.5,1.8,10.6,5.2c1.5,1.2,2.9,2.6,4.4,4.1c-2.5,2.7-4.9,5.8-7.3,9.2c-4.1,0.3-8,0.9-11.6,1.7
			C24.2,25.3,23.8,23.4,23.5,21.5z M18.3,48.8C11.6,46.3,7.7,43,7.7,39.6c0-3.4,3.8-6.7,10.6-9.2c1.8-0.7,3.7-1.2,5.8-1.7
			c1.1,3.5,2.5,7.2,4.3,10.9c-1.8,3.7-3.2,7.4-4.3,10.9C22,50,20.1,49.4,18.3,48.8z M39.3,66.9c-5.5,4.6-10.3,6.2-13.2,4.6
			c-2.9-1.7-3.9-6.7-2.7-13.7c0.3-1.9,0.8-3.8,1.4-5.8c3.6,0.8,7.5,1.4,11.6,1.7c2.3,3.4,4.8,6.5,7.3,9.2
			C42.2,64.3,40.8,65.7,39.3,66.9z M65.5,57.7c1.2,7,0.3,12-2.7,13.7c-2.9,1.7-7.7,0-13.2-4.6c-1.5-1.2-2.9-2.6-4.4-4.1
			c2.5-2.7,4.9-5.8,7.3-9.2c4.1-0.3,8-0.9,11.6-1.7C64.8,53.9,65.2,55.9,65.5,57.7z M70.7,48.8C68.9,49.4,67,50,65,50.5
			c-1.1-3.5-2.5-7.2-4.3-10.9c1.8-3.7,3.2-7.4,4.3-10.9c2,0.5,4,1.1,5.8,1.7c6.7,2.5,10.6,5.8,10.6,9.2C81.3,43,77.4,46.3,70.7,48.8
			z"/>
		<g>
			<circle class="st0" cx="74.3" cy="31.3" r="4.1"/>
		</g>
		<g>
			<circle class="st0" cx="15.2" cy="48.1" r="4.1"/>
		</g>
		<g>
			<circle class="st0" cx="54.3" cy="71.4" r="4.1"/>
		</g>
		<g>
			<circle class="st0" cx="36.9" cy="9.7" r="4.1"/>
		</g>
	</g>
	<g>
		<path class="st0" d="M10.9,94.7c-0.1,0-0.1-0.1-0.1-0.2V83.9c0-0.1,0-0.2,0.1-0.2h3.8c0.1,0,0.1,0,0.1,0.2v0.8
			c0,0.1,0,0.2-0.1,0.2h-2.8v3.8h2.6c0.1,0,0.1,0,0.1,0.2v0.7c0,0.1,0,0.2-0.1,0.2h-2.6v4h2.8c0.1,0,0.1,0,0.1,0.2v0.8
			c0,0.1,0,0.2-0.1,0.2H10.9z"/>
		<path class="st0" d="M16.4,94.7c-0.1,0-0.1-0.1-0.1-0.2V83.4c0-0.1,0-0.2,0.1-0.2h0.9c0.1,0,0.1,0.1,0.1,0.2v11.1
			c0,0.1,0,0.2-0.1,0.2H16.4z"/>
		<path class="st0" d="M21,94.8c-0.7,0-1.3-0.2-1.7-0.7s-0.5-1.2-0.5-2.2v-2.8c0-0.9,0.2-1.6,0.5-2c0.4-0.4,0.9-0.6,1.6-0.6
			c0.7,0,1.2,0.2,1.6,0.7c0.4,0.4,0.5,1.1,0.5,2v1.7c0,0.1,0,0.1-0.1,0.1h-3v1c0,0.6,0.1,1.1,0.3,1.4c0.2,0.3,0.5,0.4,0.8,0.4
			c0.3,0,0.6-0.1,0.7-0.3c0.2-0.2,0.2-0.5,0.2-0.8c0-0.1,0-0.2,0.1-0.2h0.8c0.1,0,0.1,0,0.1,0.1c0,0.7-0.1,1.2-0.5,1.6
			C22.1,94.6,21.6,94.8,21,94.8z M19.9,89.8h2.1v-0.8c0-0.6-0.1-1-0.2-1.2c-0.2-0.3-0.4-0.4-0.8-0.4c-0.4,0-0.6,0.1-0.8,0.4
			c-0.2,0.3-0.3,0.7-0.3,1.2V89.8z"/>
		<path class="st0" d="M26.4,94.8c-0.7,0-1.3-0.2-1.7-0.7c-0.4-0.5-0.5-1.1-0.5-2.1v-2.8c0-0.9,0.2-1.6,0.5-2.1
			c0.4-0.5,0.9-0.7,1.7-0.7c0.5,0,0.8,0.1,1.2,0.3c0.3,0.2,0.5,0.5,0.7,0.8c0.1,0.4,0.2,0.8,0.2,1.3c0,0.1,0,0.2-0.1,0.2h-0.8
			c0,0-0.1,0-0.1,0c0,0,0-0.1,0-0.1c0-0.4,0-0.8-0.2-1c-0.2-0.3-0.4-0.4-0.8-0.4c-0.4,0-0.7,0.1-0.8,0.4c-0.2,0.3-0.3,0.7-0.3,1.3
			V92c0,0.6,0.1,1.1,0.3,1.3c0.2,0.3,0.5,0.4,0.8,0.4c0.3,0,0.6-0.1,0.8-0.3c0.2-0.2,0.2-0.6,0.2-1c0-0.1,0-0.2,0.1-0.2h0.8
			c0.1,0,0.1,0,0.1,0.2c0,0.8-0.2,1.4-0.5,1.8S27.1,94.8,26.4,94.8z"/>
		<path class="st0" d="M31.7,94.8c-0.6,0-1-0.2-1.2-0.5c-0.2-0.3-0.4-0.9-0.4-1.7v-4.9h-0.7c-0.1,0-0.1,0-0.1-0.1v-0.8
			c0-0.1,0-0.2,0.1-0.2h0.8l0.1-2c0-0.1,0.1-0.1,0.1-0.1h0.7c0.1,0,0.1,0,0.1,0.1v2h1.5c0.1,0,0.1,0,0.1,0.2v0.8
			c0,0.1,0,0.1-0.1,0.1h-1.5v4.9c0,0.5,0.1,0.8,0.2,1c0.1,0.2,0.3,0.3,0.6,0.3c0.1,0,0.3,0,0.4-0.1c0.1,0,0.3-0.1,0.4-0.1
			c0.1,0,0.1,0,0.1,0.1v0.8c0,0.1,0,0.2-0.1,0.2c-0.1,0-0.3,0.1-0.5,0.1C32,94.8,31.9,94.8,31.7,94.8z"/>
		<path class="st0" d="M34.1,94.7c-0.1,0-0.1-0.1-0.1-0.2v-6c0-0.5,0-0.9,0-1.1c0-0.3,0-0.5,0-0.7c0-0.1,0-0.2,0.1-0.2h0.8
			c0.1,0,0.1,0,0.1,0.2c0,0.2,0,0.5,0.1,0.8s0,0.6,0,0.7l0.1,0.1v6.2c0,0.1,0,0.2-0.1,0.2H34.1z M34.9,88.8l-0.1-1.1
			c0.1-0.2,0.3-0.4,0.5-0.6c0.2-0.2,0.4-0.4,0.6-0.5c0.2-0.1,0.4-0.2,0.7-0.2c0.1,0,0.2,0,0.3,0c0,0,0.1,0,0.1,0.1c0,0,0,0.1,0,0.1
			c0,0.2,0,0.4,0,0.5c0,0.2,0,0.3,0,0.5c0,0.1-0.1,0.1-0.1,0.1c-0.1,0-0.1,0-0.2,0c-0.1,0-0.1,0-0.2,0c-0.2,0-0.5,0.1-0.8,0.3
			S35.1,88.5,34.9,88.8z"/>
		<path class="st0" d="M38.6,85c-0.2,0-0.4-0.1-0.6-0.2c-0.1-0.1-0.2-0.3-0.2-0.5v-0.2c0-0.2,0.1-0.4,0.2-0.5
			c0.1-0.1,0.3-0.2,0.6-0.2s0.4,0.1,0.5,0.2c0.1,0.1,0.2,0.3,0.2,0.5v0.2c0,0.2-0.1,0.4-0.2,0.5C39,85,38.8,85,38.6,85z M38.1,94.7
			c-0.1,0-0.1-0.1-0.1-0.2v-7.8c0-0.1,0-0.2,0.1-0.2H39c0.1,0,0.1,0,0.1,0.2v7.8c0,0.1,0,0.2-0.1,0.2H38.1z"/>
		<path class="st0" d="M42.7,94.8c-0.7,0-1.3-0.2-1.7-0.7c-0.4-0.5-0.5-1.1-0.5-2.1v-2.8c0-0.9,0.2-1.6,0.5-2.1
			c0.4-0.5,0.9-0.7,1.7-0.7c0.5,0,0.8,0.1,1.2,0.3c0.3,0.2,0.5,0.5,0.7,0.8c0.1,0.4,0.2,0.8,0.2,1.3c0,0.1,0,0.2-0.1,0.2h-0.8
			c0,0-0.1,0-0.1,0c0,0,0-0.1,0-0.1c0-0.4,0-0.8-0.2-1c-0.2-0.3-0.4-0.4-0.8-0.4c-0.4,0-0.7,0.1-0.8,0.4c-0.2,0.3-0.3,0.7-0.3,1.3
			V92c0,0.6,0.1,1.1,0.3,1.3c0.2,0.3,0.5,0.4,0.8,0.4c0.3,0,0.6-0.1,0.8-0.3c0.2-0.2,0.2-0.6,0.2-1c0-0.1,0-0.2,0.1-0.2h0.8
			c0.1,0,0.1,0,0.1,0.2c0,0.8-0.2,1.4-0.5,1.8S43.4,94.8,42.7,94.8z"/>
		<path class="st0" d="M47.1,94.8c-0.4,0-0.8-0.2-1-0.6c-0.2-0.4-0.4-0.9-0.4-1.6c0-0.8,0.2-1.4,0.5-1.8c0.3-0.5,0.9-0.7,1.6-0.8
			l0.9-0.1v0.9L48,90.9c-0.4,0-0.7,0.2-0.9,0.5c-0.2,0.3-0.3,0.7-0.3,1.2c0,0.4,0.1,0.7,0.2,0.9s0.3,0.3,0.5,0.3s0.4-0.1,0.6-0.2
			c0.2-0.2,0.4-0.4,0.8-0.8l0.1,1c-0.3,0.4-0.6,0.7-0.9,0.9C47.7,94.7,47.4,94.8,47.1,94.8z M48.9,94.7c-0.1,0-0.1-0.1-0.1-0.2
			c0-0.2,0-0.5-0.1-0.8c0-0.3,0-0.6,0-0.8l-0.1-0.1v-4.2c0-0.5-0.1-0.8-0.2-0.9c-0.1-0.2-0.3-0.3-0.6-0.3c-0.3,0-0.5,0.1-0.7,0.3
			c-0.1,0.2-0.2,0.5-0.1,0.8c0,0.1,0,0.2-0.1,0.2h-0.7c-0.1,0-0.2-0.1-0.2-0.2c-0.1-0.7,0.1-1.2,0.4-1.5c0.3-0.4,0.8-0.6,1.5-0.6
			c0.7,0,1.2,0.2,1.4,0.5c0.3,0.3,0.4,0.9,0.4,1.7v4c0,0.4,0,0.8,0,1.1c0,0.3,0,0.5,0,0.7c0,0.1,0,0.2-0.1,0.2H48.9z"/>
		<path class="st0" d="M51.3,94.7c-0.1,0-0.1-0.1-0.1-0.2V83.4c0-0.1,0-0.2,0.1-0.2h0.9c0.1,0,0.1,0.1,0.1,0.2v11.1
			c0,0.1,0,0.2-0.1,0.2H51.3z"/>
		<path class="st0" d="M57.6,94.8c-0.7,0-1.2-0.2-1.5-0.6s-0.4-1-0.4-1.9c0-0.1,0-0.1,0.1-0.1h0.9c0.1,0,0.1,0,0.1,0.1
			c0,0.5,0,0.9,0.2,1.1c0.1,0.2,0.3,0.3,0.7,0.3c0.6,0,0.9-0.4,0.9-1.1c0-0.3,0-0.5-0.1-0.7c-0.1-0.2-0.3-0.4-0.5-0.6l-1.1-0.9
			c-0.3-0.3-0.6-0.6-0.8-0.9s-0.2-0.8-0.2-1.2c0-0.6,0.2-1.1,0.5-1.4c0.3-0.3,0.8-0.5,1.4-0.5c0.6,0,1.1,0.2,1.4,0.6
			s0.4,0.9,0.4,1.6c0,0.1,0,0.1-0.1,0.1h-0.8c0,0,0,0-0.1,0s0-0.1,0-0.2c0-0.3,0-0.6-0.2-0.8c-0.1-0.2-0.3-0.3-0.6-0.3
			c-0.5,0-0.8,0.3-0.8,0.9c0,0.3,0.1,0.5,0.2,0.7c0.1,0.2,0.3,0.4,0.5,0.6l1.1,0.9c0.4,0.3,0.6,0.6,0.8,0.9c0.1,0.3,0.2,0.7,0.2,1.2
			c0,0.7-0.2,1.3-0.5,1.6C58.7,94.6,58.3,94.8,57.6,94.8z"/>
		<path class="st0" d="M62.8,94.8c-0.6,0-1-0.2-1.2-0.5c-0.2-0.3-0.4-0.9-0.4-1.7v-4.9h-0.7c-0.1,0-0.1,0-0.1-0.1v-0.8
			c0-0.1,0-0.2,0.1-0.2h0.8l0.1-2c0-0.1,0.1-0.1,0.1-0.1h0.7c0.1,0,0.1,0,0.1,0.1v2h1.5c0.1,0,0.1,0,0.1,0.2v0.8
			c0,0.1,0,0.1-0.1,0.1h-1.5v4.9c0,0.5,0.1,0.8,0.2,1c0.1,0.2,0.3,0.3,0.6,0.3c0.1,0,0.3,0,0.4-0.1c0.1,0,0.3-0.1,0.4-0.1
			c0.1,0,0.1,0,0.1,0.1v0.8c0,0.1,0,0.2-0.1,0.2c-0.1,0-0.3,0.1-0.5,0.1C63.2,94.8,63,94.8,62.8,94.8z"/>
		<path class="st0" d="M67,94.8c-0.7,0-1.3-0.2-1.7-0.7s-0.5-1.1-0.5-2v-2.9c0-0.9,0.2-1.6,0.5-2.1c0.4-0.4,0.9-0.7,1.7-0.7
			c0.7,0,1.3,0.2,1.7,0.7c0.4,0.4,0.5,1.1,0.5,2.1v2.9c0,0.9-0.2,1.6-0.5,2S67.8,94.8,67,94.8z M67,93.7c0.4,0,0.7-0.1,0.8-0.4
			s0.3-0.7,0.3-1.3v-2.9c0-0.6-0.1-1-0.3-1.3c-0.2-0.3-0.5-0.4-0.8-0.4c-0.4,0-0.7,0.1-0.8,0.4c-0.2,0.3-0.3,0.7-0.3,1.3v2.9
			c0,0.6,0.1,1,0.3,1.3S66.7,93.7,67,93.7z"/>
		<path class="st0" d="M70.8,94.7c-0.1,0-0.1-0.1-0.1-0.2v-6c0-0.5,0-0.9,0-1.1s0-0.5,0-0.7c0-0.1,0-0.2,0.1-0.2h0.8
			c0.1,0,0.1,0,0.1,0.2c0,0.2,0,0.5,0.1,0.8s0,0.6,0,0.7l0.1,0.1v6.2c0,0.1,0,0.2-0.1,0.2H70.8z M71.6,88.8l-0.1-1.1
			c0.1-0.2,0.3-0.4,0.5-0.6c0.2-0.2,0.4-0.4,0.6-0.5c0.2-0.1,0.4-0.2,0.7-0.2c0.1,0,0.2,0,0.3,0c0,0,0.1,0,0.1,0.1c0,0,0,0.1,0,0.1
			c0,0.2,0,0.4,0,0.5c0,0.2,0,0.3,0,0.5c0,0.1,0,0.1-0.1,0.1c-0.1,0-0.1,0-0.2,0s-0.1,0-0.2,0c-0.2,0-0.5,0.1-0.8,0.3
			C72,88.2,71.8,88.5,71.6,88.8z"/>
		<path class="st0" d="M76.4,94.8c-0.7,0-1.3-0.2-1.7-0.7s-0.5-1.2-0.5-2.2v-2.8c0-0.9,0.2-1.6,0.5-2c0.4-0.4,0.9-0.6,1.6-0.6
			c0.7,0,1.2,0.2,1.6,0.7c0.4,0.4,0.5,1.1,0.5,2v1.7c0,0.1,0,0.1-0.1,0.1h-3v1c0,0.6,0.1,1.1,0.3,1.4c0.2,0.3,0.5,0.4,0.8,0.4
			c0.3,0,0.6-0.1,0.7-0.3c0.2-0.2,0.2-0.5,0.2-0.8c0-0.1,0-0.2,0.1-0.2h0.8c0.1,0,0.1,0,0.1,0.1c0,0.7-0.1,1.2-0.5,1.6
			C77.6,94.6,77.1,94.8,76.4,94.8z M75.3,89.8h2.1v-0.8c0-0.6-0.1-1-0.2-1.2c-0.2-0.3-0.4-0.4-0.8-0.4c-0.4,0-0.6,0.1-0.8,0.4
			c-0.2,0.3-0.3,0.7-0.3,1.2V89.8z"/>
	</g>
</g>
<g>
</g>
<g>
</g>
<g>
</g>
<g>
</g>
<g>
</g>
<g>
</g>
<g>
</g>
<g>
</g>
<g>
</g>
<g>
</g>
<g>
</g>
<g>
</g>
<g>
</g>
<g>
</g>
<g>
</g>
</svg>
