<?xml version="1.0" encoding="utf-8"?>
<!-- Generator: Adobe Illustrator 22.1.0, SVG Export Plug-In . SVG Version: 6.00 Build 0)  -->
<svg version="1.1" id="Layer_1" xmlns="http://www.w3.org/2000/svg" xmlns:xlink="http://www.w3.org/1999/xlink" x="0px" y="0px"
	 viewBox="0 0 121 138" style="enable-background:new 0 0 121 138;" xml:space="preserve">
<style type="text/css">
	.st0{fill:#313CFF;}
	.st1{fill:#18227C;}
</style>
<g>
	<g>
		<path class="st0" d="M87.1,46.4c-1.8-0.7-3.7-1.2-5.8-1.8c0.6-2,1.1-4,1.4-5.9c1.3-7.7,0.2-13-3.2-14.9c-3.4-2-8.6-0.3-14.5,4.7
			c-1.5,1.2-3,2.6-4.4,4.2c-1.5-1.5-3-2.9-4.4-4.2c-6-5-11.1-6.6-14.5-4.7c-3.4,2-4.5,7.3-3.2,14.9c0.3,1.9,0.8,3.9,1.4,5.9
			c-2.1,0.5-4,1.1-5.8,1.8c-7.3,2.7-11.3,6.3-11.3,10.3s4,7.6,11.3,10.3c1.8,0.7,3.7,1.2,5.8,1.8c-0.6,2-1.1,4-1.4,5.9
			c-1.3,7.7-0.2,13,3.2,14.9c0.9,0.5,2,0.8,3.2,0.8c3.1,0,7-1.9,11.4-5.5c1.5-1.2,3-2.6,4.4-4.2c1.5,1.5,3,2.9,4.4,4.2
			c4.3,3.6,8.2,5.5,11.4,5.5c1.2,0,2.2-0.3,3.2-0.8c3.4-2,4.5-7.3,3.2-14.9c-0.3-1.9-0.8-3.9-1.4-5.9c2.1-0.5,4-1.1,5.8-1.8
			c7.3-2.7,11.3-6.3,11.3-10.3S94.4,49,87.1,46.4z M65.7,29.3c4.1-3.4,7.8-5.2,10.6-5.2c1,0,1.8,0.2,2.6,0.6
			c2.9,1.7,3.9,6.7,2.7,13.7c-0.3,1.9-0.8,3.8-1.4,5.8c-3.6-0.8-7.5-1.4-11.6-1.7c-2.3-3.4-4.8-6.5-7.3-9.2
			C62.8,31.9,64.2,30.5,65.7,29.3z M71.9,63.2c-1.3,2.2-2.6,4.3-4,6.3c-2.4,0.2-4.9,0.3-7.4,0.3c-2.5,0-5-0.1-7.4-0.3
			c-1.4-2-2.7-4.1-4-6.3c-1.3-2.2-2.4-4.4-3.5-6.6c1.1-2.2,2.2-4.4,3.5-6.6c1.3-2.2,2.6-4.3,4-6.3c2.4-0.2,4.9-0.3,7.4-0.3
			c2.5,0,5,0.1,7.4,0.3c1.4,2,2.7,4.1,4,6.3c1.3,2.2,2.4,4.4,3.5,6.6C74.3,58.8,73.2,61,71.9,63.2z M76,58c1.6,3.4,2.8,6.7,3.8,9.8
			c-3.2,0.7-6.7,1.3-10.4,1.6c1.2-1.8,2.4-3.7,3.5-5.6C74,61.8,75,59.9,76,58z M67.1,70.7c-2.1,3-4.3,5.8-6.6,8.2
			c-2.2-2.4-4.5-5.2-6.6-8.2c2.2,0.1,4.4,0.2,6.6,0.2C62.7,70.9,64.9,70.9,67.1,70.7z M51.6,69.4c-3.7-0.3-7.2-0.9-10.4-1.6
			c1-3.2,2.3-6.5,3.8-9.8c1,1.9,2,3.9,3.1,5.8C49.2,65.7,50.4,67.6,51.6,69.4z M45,55.3c-1.6-3.4-2.8-6.7-3.8-9.8
			c3.2-0.7,6.7-1.3,10.4-1.6c-1.2,1.8-2.4,3.7-3.5,5.6C47,51.4,46,53.3,45,55.3z M53.9,42.5c2.1-3,4.3-5.8,6.6-8.2
			c2.2,2.4,4.5,5.2,6.6,8.2c-2.2-0.1-4.4-0.2-6.6-0.2C58.3,42.3,56.1,42.4,53.9,42.5z M72.9,49.5c-1.1-1.9-2.3-3.8-3.5-5.6
			c3.7,0.3,7.2,0.9,10.4,1.6c-1,3.2-2.3,6.5-3.8,9.8C75,53.3,74,51.4,72.9,49.5z M39.5,38.5c-1.2-7-0.3-12,2.7-13.7
			c0.7-0.4,1.6-0.6,2.6-0.6c2.8,0,6.5,1.8,10.6,5.2c1.5,1.2,2.9,2.6,4.4,4.1c-2.5,2.7-4.9,5.8-7.3,9.2c-4.1,0.3-8,0.9-11.6,1.7
			C40.2,42.3,39.8,40.4,39.5,38.5z M34.3,65.8c-6.7-2.5-10.6-5.8-10.6-9.2c0-3.4,3.8-6.7,10.6-9.2c1.8-0.7,3.7-1.2,5.8-1.7
			c1.1,3.5,2.5,7.2,4.3,10.9c-1.8,3.7-3.2,7.4-4.3,10.9C38,67,36.1,66.4,34.3,65.8z M55.3,83.9c-5.5,4.6-10.3,6.2-13.2,4.6
			c-2.9-1.7-3.9-6.7-2.7-13.7c0.3-1.9,0.8-3.8,1.4-5.8c3.6,0.8,7.5,1.4,11.6,1.7c2.3,3.4,4.8,6.5,7.3,9.2
			C58.2,81.3,56.8,82.7,55.3,83.9z M81.5,74.7c1.2,7,0.3,12-2.7,13.7c-2.9,1.7-7.7,0-13.2-4.6c-1.5-1.2-2.9-2.6-4.4-4.1
			c2.5-2.7,4.9-5.8,7.3-9.2c4.1-0.3,8-0.9,11.6-1.7C80.8,70.9,81.2,72.9,81.5,74.7z M86.7,65.8C84.9,66.4,83,67,81,67.5
			c-1.1-3.5-2.5-7.2-4.3-10.9c1.8-3.7,3.2-7.4,4.3-10.9c2,0.5,4,1.1,5.8,1.7c6.7,2.5,10.6,5.8,10.6,9.2C97.3,60,93.4,63.3,86.7,65.8
			z"/>
		<g>
			<circle class="st1" cx="90.3" cy="48.3" r="4.1"/>
		</g>
		<g>
			<circle class="st1" cx="31.2" cy="65.1" r="4.1"/>
		</g>
		<g>
			<circle class="st1" cx="70.3" cy="88.4" r="4.1"/>
		</g>
		<g>
			<circle class="st1" cx="52.9" cy="26.7" r="4.1"/>
		</g>
	</g>
	<g>
		<path class="st1" d="M26.9,111.7c-0.1,0-0.1-0.1-0.1-0.2v-10.7c0-0.1,0-0.2,0.1-0.2h3.8c0.1,0,0.1,0,0.1,0.2v0.8
			c0,0.1,0,0.2-0.1,0.2h-2.8v3.8h2.6c0.1,0,0.1,0,0.1,0.2v0.7c0,0.1,0,0.2-0.1,0.2h-2.6v4h2.8c0.1,0,0.1,0,0.1,0.2v0.8
			c0,0.1,0,0.2-0.1,0.2H26.9z"/>
		<path class="st1" d="M32.4,111.7c-0.1,0-0.1-0.1-0.1-0.2v-11.1c0-0.1,0-0.2,0.1-0.2h0.9c0.1,0,0.1,0.1,0.1,0.2v11.1
			c0,0.1,0,0.2-0.1,0.2H32.4z"/>
		<path class="st1" d="M37,111.8c-0.7,0-1.3-0.2-1.7-0.7s-0.5-1.2-0.5-2.2v-2.8c0-0.9,0.2-1.6,0.5-2c0.4-0.4,0.9-0.6,1.6-0.6
			c0.7,0,1.2,0.2,1.6,0.7c0.4,0.4,0.5,1.1,0.5,2v1.7c0,0.1,0,0.1-0.1,0.1h-3v1c0,0.6,0.1,1.1,0.3,1.4c0.2,0.3,0.5,0.4,0.8,0.4
			c0.3,0,0.6-0.1,0.7-0.3c0.2-0.2,0.2-0.5,0.2-0.8c0-0.1,0-0.2,0.1-0.2h0.8c0.1,0,0.1,0,0.1,0.1c0,0.7-0.1,1.2-0.5,1.6
			C38.1,111.6,37.6,111.8,37,111.8z M35.9,106.8h2.1v-0.8c0-0.6-0.1-1-0.2-1.2c-0.2-0.3-0.4-0.4-0.8-0.4c-0.4,0-0.6,0.1-0.8,0.4
			c-0.2,0.3-0.3,0.7-0.3,1.2V106.8z"/>
		<path class="st1" d="M42.4,111.8c-0.7,0-1.3-0.2-1.7-0.7c-0.4-0.5-0.5-1.1-0.5-2.1v-2.8c0-0.9,0.2-1.6,0.5-2.1
			c0.4-0.5,0.9-0.7,1.7-0.7c0.5,0,0.8,0.1,1.2,0.3c0.3,0.2,0.5,0.5,0.7,0.8c0.1,0.4,0.2,0.8,0.2,1.3c0,0.1,0,0.2-0.1,0.2h-0.8
			c0,0-0.1,0-0.1,0c0,0,0-0.1,0-0.1c0-0.4,0-0.8-0.2-1c-0.2-0.3-0.4-0.4-0.8-0.4c-0.4,0-0.7,0.1-0.8,0.4c-0.2,0.3-0.3,0.7-0.3,1.3
			v2.8c0,0.6,0.1,1.1,0.3,1.3c0.2,0.3,0.5,0.4,0.8,0.4c0.3,0,0.6-0.1,0.8-0.3c0.2-0.2,0.2-0.6,0.2-1c0-0.1,0-0.2,0.1-0.2h0.8
			c0.1,0,0.1,0,0.1,0.2c0,0.8-0.2,1.4-0.5,1.8S43.1,111.8,42.4,111.8z"/>
		<path class="st1" d="M47.7,111.8c-0.6,0-1-0.2-1.2-0.5c-0.2-0.3-0.4-0.9-0.4-1.7v-4.9h-0.7c-0.1,0-0.1,0-0.1-0.1v-0.8
			c0-0.1,0-0.2,0.1-0.2h0.8l0.1-2c0-0.1,0.1-0.1,0.1-0.1h0.7c0.1,0,0.1,0,0.1,0.1v2h1.5c0.1,0,0.1,0,0.1,0.2v0.8
			c0,0.1,0,0.1-0.1,0.1h-1.5v4.9c0,0.5,0.1,0.8,0.2,1c0.1,0.2,0.3,0.3,0.6,0.3c0.1,0,0.3,0,0.4-0.1c0.1,0,0.3-0.1,0.4-0.1
			c0.1,0,0.1,0,0.1,0.1v0.8c0,0.1,0,0.2-0.1,0.2c-0.1,0-0.3,0.1-0.5,0.1C48,111.8,47.9,111.8,47.7,111.8z"/>
		<path class="st1" d="M50.1,111.7c-0.1,0-0.1-0.1-0.1-0.2v-6c0-0.5,0-0.9,0-1.1c0-0.3,0-0.5,0-0.7c0-0.1,0-0.2,0.1-0.2h0.8
			c0.1,0,0.1,0,0.1,0.2c0,0.2,0,0.5,0.1,0.8s0,0.6,0,0.7l0.1,0.1v6.2c0,0.1,0,0.2-0.1,0.2H50.1z M50.9,105.8l-0.1-1.1
			c0.1-0.2,0.3-0.4,0.5-0.6c0.2-0.2,0.4-0.4,0.6-0.5c0.2-0.1,0.4-0.2,0.7-0.2c0.1,0,0.2,0,0.3,0c0,0,0.1,0,0.1,0.1c0,0,0,0.1,0,0.1
			c0,0.2,0,0.4,0,0.5c0,0.2,0,0.3,0,0.5c0,0.1-0.1,0.1-0.1,0.1c-0.1,0-0.1,0-0.2,0c-0.1,0-0.1,0-0.2,0c-0.2,0-0.5,0.1-0.8,0.3
			S51.1,105.5,50.9,105.8z"/>
		<path class="st1" d="M54.6,102c-0.2,0-0.4-0.1-0.6-0.2c-0.1-0.1-0.2-0.3-0.2-0.5v-0.2c0-0.2,0.1-0.4,0.2-0.5
			c0.1-0.1,0.3-0.2,0.6-0.2s0.4,0.1,0.5,0.2c0.1,0.1,0.2,0.3,0.2,0.5v0.2c0,0.2-0.1,0.4-0.2,0.5C55,102,54.8,102,54.6,102z
			 M54.1,111.7c-0.1,0-0.1-0.1-0.1-0.2v-7.8c0-0.1,0-0.2,0.1-0.2H55c0.1,0,0.1,0,0.1,0.2v7.8c0,0.1,0,0.2-0.1,0.2H54.1z"/>
		<path class="st1" d="M58.7,111.8c-0.7,0-1.3-0.2-1.7-0.7c-0.4-0.5-0.5-1.1-0.5-2.1v-2.8c0-0.9,0.2-1.6,0.5-2.1
			c0.4-0.5,0.9-0.7,1.7-0.7c0.5,0,0.8,0.1,1.2,0.3c0.3,0.2,0.5,0.5,0.7,0.8c0.1,0.4,0.2,0.8,0.2,1.3c0,0.1,0,0.2-0.1,0.2h-0.8
			c0,0-0.1,0-0.1,0c0,0,0-0.1,0-0.1c0-0.4,0-0.8-0.2-1c-0.2-0.3-0.4-0.4-0.8-0.4c-0.4,0-0.7,0.1-0.8,0.4c-0.2,0.3-0.3,0.7-0.3,1.3
			v2.8c0,0.6,0.1,1.1,0.3,1.3c0.2,0.3,0.5,0.4,0.8,0.4c0.3,0,0.6-0.1,0.8-0.3c0.2-0.2,0.2-0.6,0.2-1c0-0.1,0-0.2,0.1-0.2h0.8
			c0.1,0,0.1,0,0.1,0.2c0,0.8-0.2,1.4-0.5,1.8S59.4,111.8,58.7,111.8z"/>
		<path class="st1" d="M63.1,111.8c-0.4,0-0.8-0.2-1-0.6c-0.2-0.4-0.4-0.9-0.4-1.6c0-0.8,0.2-1.4,0.5-1.8c0.3-0.5,0.9-0.7,1.6-0.8
			l0.9-0.1v0.9l-0.8,0.1c-0.4,0-0.7,0.2-0.9,0.5s-0.3,0.7-0.3,1.2c0,0.4,0.1,0.7,0.2,0.9c0.1,0.2,0.3,0.3,0.5,0.3
			c0.2,0,0.4-0.1,0.6-0.2c0.2-0.2,0.4-0.4,0.8-0.8l0.1,1c-0.3,0.4-0.6,0.7-0.9,0.9C63.7,111.7,63.4,111.8,63.1,111.8z M64.9,111.7
			c-0.1,0-0.1-0.1-0.1-0.2c0-0.2,0-0.5-0.1-0.8c0-0.3,0-0.6,0-0.8l-0.1-0.1v-4.2c0-0.5-0.1-0.8-0.2-0.9c-0.1-0.2-0.3-0.3-0.6-0.3
			c-0.3,0-0.5,0.1-0.7,0.3c-0.1,0.2-0.2,0.5-0.1,0.8c0,0.1,0,0.2-0.1,0.2h-0.7c-0.1,0-0.2-0.1-0.2-0.2c-0.1-0.7,0.1-1.2,0.4-1.5
			c0.3-0.4,0.8-0.6,1.5-0.6c0.7,0,1.2,0.2,1.5,0.5c0.3,0.3,0.4,0.9,0.4,1.7v4c0,0.4,0,0.8,0,1.1c0,0.3,0,0.5,0,0.7
			c0,0.1,0,0.2-0.1,0.2H64.9z"/>
		<path class="st1" d="M67.3,111.7c-0.1,0-0.1-0.1-0.1-0.2v-11.1c0-0.1,0-0.2,0.1-0.2h0.9c0.1,0,0.1,0.1,0.1,0.2v11.1
			c0,0.1,0,0.2-0.1,0.2H67.3z"/>
		<path class="st1" d="M73.6,111.8c-0.7,0-1.2-0.2-1.5-0.6s-0.4-1-0.4-1.9c0-0.1,0-0.1,0.1-0.1h0.9c0.1,0,0.1,0,0.1,0.1
			c0,0.5,0,0.9,0.2,1.1c0.1,0.2,0.3,0.3,0.7,0.3c0.6,0,0.9-0.4,0.9-1.1c0-0.3,0-0.5-0.1-0.7c-0.1-0.2-0.3-0.4-0.5-0.6l-1.1-0.9
			c-0.3-0.3-0.6-0.6-0.8-0.9s-0.2-0.8-0.2-1.2c0-0.6,0.2-1.1,0.5-1.4c0.3-0.3,0.8-0.5,1.4-0.5c0.6,0,1.1,0.2,1.4,0.6
			s0.4,0.9,0.4,1.6c0,0.1,0,0.1-0.1,0.1h-0.8c0,0,0,0-0.1,0s0-0.1,0-0.2c0-0.3,0-0.6-0.2-0.8c-0.1-0.2-0.3-0.3-0.6-0.3
			c-0.5,0-0.8,0.3-0.8,0.9c0,0.3,0.1,0.5,0.2,0.7c0.1,0.2,0.3,0.4,0.5,0.6l1.1,0.9c0.4,0.3,0.6,0.6,0.8,0.9c0.1,0.3,0.2,0.7,0.2,1.2
			c0,0.7-0.2,1.3-0.5,1.6C74.7,111.6,74.3,111.8,73.6,111.8z"/>
		<path class="st1" d="M78.8,111.8c-0.6,0-1-0.2-1.2-0.5c-0.2-0.3-0.4-0.9-0.4-1.7v-4.9h-0.7c-0.1,0-0.1,0-0.1-0.1v-0.8
			c0-0.1,0-0.2,0.1-0.2h0.8l0.1-2c0-0.1,0.1-0.1,0.1-0.1h0.7c0.1,0,0.1,0,0.1,0.1v2h1.5c0.1,0,0.1,0,0.1,0.2v0.8
			c0,0.1,0,0.1-0.1,0.1h-1.5v4.9c0,0.5,0.1,0.8,0.2,1c0.1,0.2,0.3,0.3,0.6,0.3c0.1,0,0.3,0,0.4-0.1c0.1,0,0.3-0.1,0.4-0.1
			c0.1,0,0.1,0,0.1,0.1v0.8c0,0.1,0,0.2-0.1,0.2c-0.1,0-0.3,0.1-0.5,0.1C79.2,111.8,79,111.8,78.8,111.8z"/>
		<path class="st1" d="M83,111.8c-0.7,0-1.3-0.2-1.7-0.7s-0.5-1.1-0.5-2v-2.9c0-0.9,0.2-1.6,0.5-2.1c0.4-0.4,0.9-0.7,1.7-0.7
			c0.7,0,1.3,0.2,1.7,0.7c0.4,0.4,0.5,1.1,0.5,2.1v2.9c0,0.9-0.2,1.6-0.5,2S83.8,111.8,83,111.8z M83,110.7c0.4,0,0.7-0.1,0.8-0.4
			s0.3-0.7,0.3-1.3v-2.9c0-0.6-0.1-1-0.3-1.3c-0.2-0.3-0.5-0.4-0.8-0.4c-0.4,0-0.7,0.1-0.8,0.4c-0.2,0.3-0.3,0.7-0.3,1.3v2.9
			c0,0.6,0.1,1,0.3,1.3S82.7,110.7,83,110.7z"/>
		<path class="st1" d="M86.8,111.7c-0.1,0-0.1-0.1-0.1-0.2v-6c0-0.5,0-0.9,0-1.1s0-0.5,0-0.7c0-0.1,0-0.2,0.1-0.2h0.8
			c0.1,0,0.1,0,0.1,0.2c0,0.2,0,0.5,0.1,0.8s0,0.6,0,0.7l0.1,0.1v6.2c0,0.1,0,0.2-0.1,0.2H86.8z M87.6,105.8l-0.1-1.1
			c0.1-0.2,0.3-0.4,0.5-0.6c0.2-0.2,0.4-0.4,0.6-0.5c0.2-0.1,0.4-0.2,0.7-0.2c0.1,0,0.2,0,0.3,0c0,0,0.1,0,0.1,0.1c0,0,0,0.1,0,0.1
			c0,0.2,0,0.4,0,0.5c0,0.2,0,0.3,0,0.5c0,0.1,0,0.1-0.1,0.1c-0.1,0-0.1,0-0.2,0s-0.1,0-0.2,0c-0.2,0-0.5,0.1-0.8,0.3
			C88,105.2,87.8,105.5,87.6,105.8z"/>
		<path class="st1" d="M92.4,111.8c-0.7,0-1.3-0.2-1.7-0.7s-0.5-1.2-0.5-2.2v-2.8c0-0.9,0.2-1.6,0.5-2c0.4-0.4,0.9-0.6,1.6-0.6
			c0.7,0,1.2,0.2,1.6,0.7c0.4,0.4,0.5,1.1,0.5,2v1.7c0,0.1,0,0.1-0.1,0.1h-3v1c0,0.6,0.1,1.1,0.3,1.4c0.2,0.3,0.5,0.4,0.8,0.4
			c0.3,0,0.6-0.1,0.7-0.3c0.2-0.2,0.2-0.5,0.2-0.8c0-0.1,0-0.2,0.1-0.2h0.8c0.1,0,0.1,0,0.1,0.1c0,0.7-0.1,1.2-0.5,1.6
			C93.6,111.6,93.1,111.8,92.4,111.8z M91.3,106.8h2.1v-0.8c0-0.6-0.1-1-0.2-1.2c-0.2-0.3-0.4-0.4-0.8-0.4c-0.4,0-0.6,0.1-0.8,0.4
			c-0.2,0.3-0.3,0.7-0.3,1.2V106.8z"/>
	</g>
</g>
</svg>
