<svg width="35" height="35" viewBox="0 0 35 35" fill="none" xmlns="http://www.w3.org/2000/svg">
<path d="M8.75004 32.0833C7.94796 32.0833 7.26108 31.7975 6.68942 31.2258C6.11775 30.6542 5.8324 29.9678 5.83338 29.1667V14.5833C5.83338 13.7812 6.11921 13.0944 6.69088 12.5227C7.26254 11.951 7.94893 11.6657 8.75004 11.6667H10.2084V8.75C10.2084 6.73264 10.9196 5.01278 12.3419 3.59042C13.7643 2.16806 15.4837 1.45736 17.5 1.45833C19.5174 1.45833 21.2373 2.16951 22.6596 3.59187C24.082 5.01424 24.7927 6.73361 24.7917 8.75V11.6667H26.25C27.0521 11.6667 27.739 11.9525 28.3107 12.5242C28.8823 13.0958 29.1677 13.7822 29.1667 14.5833V29.1667C29.1667 29.9687 28.8809 30.6556 28.3092 31.2273C27.7375 31.799 27.0512 32.0843 26.25 32.0833H8.75004ZM17.5 24.7917C18.3021 24.7917 18.989 24.5058 19.5607 23.9342C20.1323 23.3625 20.4177 22.6761 20.4167 21.875C20.4167 21.0729 20.1309 20.386 19.5592 19.8144C18.9875 19.2427 18.3012 18.9574 17.5 18.9583C16.698 18.9583 16.0111 19.2442 15.4394 19.8158C14.8678 20.3875 14.5824 21.0739 14.5834 21.875C14.5834 22.6771 14.8692 23.364 15.4409 23.9356C16.0125 24.5073 16.6989 24.7926 17.5 24.7917ZM13.125 11.6667H21.875V8.75C21.875 7.53472 21.4497 6.50174 20.599 5.65104C19.7483 4.80035 18.7153 4.375 17.5 4.375C16.2848 4.375 15.2518 4.80035 14.4011 5.65104C13.5504 6.50174 13.125 7.53472 13.125 8.75V11.6667Z" fill="black"/>
</svg>
