<svg aria-hidden="true" style="position: absolute; width: 0; height: 0; overflow: hidden;" version="1.1" xmlns="http://www.w3.org/2000/svg" xmlns:xlink="http://www.w3.org/1999/xlink">
<defs>
<symbol id="icon-mobile-menu-burger" viewBox="0 0 32 32">
<path d="M0 7.5c0-0.398 0.158-0.779 0.439-1.061s0.663-0.439 1.061-0.439h29c0.398 0 0.779 0.158 1.061 0.439s0.439 0.663 0.439 1.061-0.158 0.779-0.439 1.061c-0.281 0.281-0.663 0.439-1.061 0.439h-29c-0.398 0-0.779-0.158-1.061-0.439s-0.439-0.663-0.439-1.061zM0 16c0-0.398 0.158-0.779 0.439-1.061s0.663-0.439 1.061-0.439h29c0.398 0 0.779 0.158 1.061 0.439s0.439 0.663 0.439 1.061-0.158 0.779-0.439 1.061c-0.281 0.281-0.663 0.439-1.061 0.439h-29c-0.398 0-0.779-0.158-1.061-0.439s-0.439-0.663-0.439-1.061zM1.5 23c-0.398 0-0.779 0.158-1.061 0.439s-0.439 0.663-0.439 1.061 0.158 0.779 0.439 1.061c0.281 0.281 0.663 0.439 1.061 0.439h29c0.398 0 0.779-0.158 1.061-0.439s0.439-0.663 0.439-1.061-0.158-0.779-0.439-1.061c-0.281-0.281-0.663-0.439-1.061-0.439h-29z"></path>
</symbol>
</defs>
</svg>