<svg aria-hidden="true" style="position: absolute; width: 0; height: 0; overflow: hidden;" version="1.1" xmlns="http://www.w3.org/2000/svg" xmlns:xlink="http://www.w3.org/1999/xlink">
<defs>
<symbol id="icon-close-button" viewBox="0 0 32 32">
<path d="M24.4 7.613c-0.123-0.124-0.27-0.222-0.431-0.289s-0.334-0.101-0.509-0.101c-0.175 0-0.348 0.034-0.509 0.101s-0.308 0.165-0.431 0.289l-6.52 6.507-6.52-6.52c-0.123-0.123-0.27-0.221-0.431-0.288s-0.334-0.101-0.509-0.101-0.347 0.034-0.509 0.101c-0.161 0.067-0.308 0.165-0.431 0.288s-0.221 0.27-0.288 0.431c-0.067 0.161-0.101 0.334-0.101 0.509s0.034 0.347 0.101 0.509c0.067 0.161 0.165 0.308 0.288 0.431l6.52 6.52-6.52 6.52c-0.123 0.123-0.221 0.27-0.288 0.431s-0.101 0.334-0.101 0.509 0.034 0.347 0.101 0.509c0.067 0.161 0.165 0.308 0.288 0.431s0.27 0.221 0.431 0.288c0.161 0.067 0.334 0.101 0.509 0.101s0.347-0.034 0.509-0.101c0.161-0.067 0.308-0.165 0.431-0.288l6.52-6.52 6.52 6.52c0.123 0.123 0.27 0.221 0.431 0.288s0.334 0.101 0.509 0.101c0.175 0 0.347-0.034 0.509-0.101s0.308-0.165 0.431-0.288 0.221-0.27 0.288-0.431c0.067-0.161 0.101-0.334 0.101-0.509s-0.034-0.347-0.101-0.509c-0.067-0.161-0.165-0.308-0.288-0.431l-6.52-6.52 6.52-6.52c0.507-0.507 0.507-1.36 0-1.867z"></path>
</symbol>
<symbol id="icon-account-modal-icon" viewBox="0 0 32 32">
<path d="M7.8 22.8c1.133-0.867 2.4-1.55 3.8-2.051s2.867-0.75 4.4-0.749c1.533 0 3 0.25 4.4 0.751s2.667 1.184 3.8 2.049c0.778-0.911 1.384-1.944 1.817-3.1s0.65-2.389 0.649-3.7c0-2.956-1.039-5.472-3.116-7.551s-4.594-3.117-7.551-3.116c-2.956 0-5.472 1.039-7.551 3.116s-3.117 4.594-3.116 7.551c0 1.311 0.217 2.544 0.651 3.7s1.039 2.189 1.816 3.1zM16 17.333c-1.311 0-2.417-0.45-3.317-1.349s-1.35-2.005-1.349-3.317c0-1.311 0.45-2.417 1.349-3.317s2.005-1.35 3.317-1.349c1.311 0 2.417 0.45 3.317 1.349s1.35 2.005 1.349 3.317c0 1.311-0.45 2.417-1.349 3.317s-2.005 1.35-3.317 1.349zM16 29.333c-1.844 0-3.578-0.35-5.2-1.051s-3.033-1.65-4.233-2.849c-1.2-1.2-2.15-2.611-2.849-4.233s-1.050-3.356-1.051-5.2c0-1.844 0.35-3.578 1.051-5.2s1.65-3.033 2.849-4.233c1.2-1.2 2.611-2.15 4.233-2.849s3.356-1.050 5.2-1.051c1.844 0 3.578 0.35 5.2 1.051s3.033 1.65 4.233 2.849c1.2 1.2 2.15 2.611 2.851 4.233s1.050 3.356 1.049 5.2c0 1.844-0.35 3.578-1.051 5.2s-1.65 3.033-2.849 4.233c-1.2 1.2-2.611 2.15-4.233 2.851s-3.356 1.050-5.2 1.049zM16 26.667c1.178 0 2.289-0.172 3.333-0.517s2-0.839 2.867-1.483c-0.867-0.644-1.822-1.139-2.867-1.484s-2.156-0.517-3.333-0.516c-1.178 0-2.289 0.172-3.333 0.517s-2 0.839-2.867 1.483c0.867 0.644 1.822 1.139 2.867 1.484s2.156 0.517 3.333 0.516zM16 14.667c0.578 0 1.056-0.189 1.433-0.567s0.567-0.856 0.567-1.433c0-0.578-0.189-1.056-0.567-1.433s-0.856-0.567-1.433-0.567c-0.578 0-1.056 0.189-1.433 0.567s-0.567 0.855-0.567 1.433c0 0.578 0.189 1.056 0.567 1.433s0.855 0.567 1.433 0.567z"></path>
</symbol>
<symbol id="icon-email-icon-modal" viewBox="0 0 32 32">
<path d="M26.667 10.667l-10.667 6.667-10.667-6.667v-2.667l10.667 6.667 10.667-6.667zM26.667 5.333h-21.333c-1.48 0-2.667 1.187-2.667 2.667v16c0 0.707 0.281 1.386 0.781 1.886s1.178 0.781 1.886 0.781h21.333c0.707 0 1.386-0.281 1.886-0.781s0.781-1.178 0.781-1.886v-16c0-0.707-0.281-1.386-0.781-1.886s-1.178-0.781-1.886-0.781z"></path>
</symbol>
<symbol id="icon-passowrd-email-icon" viewBox="0 0 32 32">
<path d="M8 29.333c-0.733 0-1.361-0.261-1.884-0.784s-0.784-1.15-0.783-1.883v-13.333c0-0.733 0.261-1.361 0.784-1.884s1.15-0.784 1.883-0.783h1.333v-2.667c0-1.844 0.65-3.417 1.951-4.717s2.873-1.95 4.716-1.949c1.844 0 3.417 0.65 4.717 1.951s1.95 2.872 1.949 4.716v2.667h1.333c0.733 0 1.361 0.261 1.884 0.784s0.784 1.15 0.783 1.883v13.333c0 0.733-0.261 1.361-0.784 1.884s-1.15 0.784-1.883 0.783h-16zM16 22.667c0.733 0 1.361-0.261 1.884-0.784s0.784-1.15 0.783-1.883c0-0.733-0.261-1.361-0.784-1.884s-1.15-0.784-1.883-0.783c-0.733 0-1.361 0.261-1.884 0.784s-0.784 1.15-0.783 1.883c0 0.733 0.261 1.361 0.784 1.884s1.15 0.784 1.883 0.783zM12 10.667h8v-2.667c0-1.111-0.389-2.056-1.167-2.833s-1.722-1.167-2.833-1.167c-1.111 0-2.056 0.389-2.833 1.167s-1.167 1.722-1.167 2.833v2.667z"></path>
</symbol>
<symbol id="icon-check-icon" viewBox="0 0 32 32">
<path fill="#fff" style="fill: var(--color1, #fff)" d="M13.333 18.133l7.867-7.867c0.244-0.244 0.556-0.367 0.933-0.367s0.689 0.122 0.933 0.367c0.244 0.244 0.367 0.556 0.367 0.933s-0.122 0.689-0.367 0.933l-8.8 8.8c-0.267 0.267-0.578 0.4-0.933 0.4s-0.667-0.133-0.933-0.4l-3.467-3.467c-0.244-0.244-0.367-0.556-0.367-0.933s0.122-0.689 0.367-0.933c0.245-0.244 0.556-0.367 0.933-0.367s0.689 0.122 0.933 0.367l2.533 2.533z"></path>
</symbol>
</defs>
</svg>